<svg viewBox="0 0 200 200" xmlns="http://www.w3.org/2000/svg">
  <!-- Rounded square background -->
  <rect x="20" y="20" width="160" height="160" rx="32" ry="32" fill="#000000"/>
  
  <!-- Main geometric composition - layered rectangles representing photos/frames -->
  <g fill="#ffffff">
    <!-- Back photo frame - rotated -->
    <rect x="45" y="75" width="110" height="80" rx="6" ry="6" opacity="0.15" transform="rotate(-5 100 115)"/>
    
    <!-- Middle photo frame - rotated opposite -->
    <rect x="50" y="70" width="110" height="80" rx="6" ry="6" opacity="0.35" transform="rotate(4 105 110)"/>
    
    <!-- Front photo frame - straight -->
    <rect x="55" y="65" width="110" height="80" rx="6" ry="6" opacity="1"/>
    
    <!-- Photo placeholder content in front frame -->
    <rect x="60" y="70" width="100" height="70" rx="3" ry="3" fill="#000000"/>
    
    <!-- Angular mountain outline - 2 peaks with depth -->
    <polyline points="60,140 85,110 110,125 135,95 160,140" fill="none" stroke="#ffffff" stroke-width="2" opacity="0.9"/>
    
    <!-- Simple sun in visible spot -->
    <circle cx="100" cy="85" r="4" fill="#ffffff" opacity="0.8"/>
  </g>
  
  <!-- Corner accent - arrow/chevron -->
  <g fill="#ffffff" opacity="0.35">
    <polygon points="47,47 52,52 47,57 45,55 48,52 45,49"/>
  </g>
</svg>