<svg xmlns="http://www.w3.org/2000/svg" xmlns:xlink="http://www.w3.org/1999/xlink" width="500" zoomAndPan="magnify" viewBox="0 0 375 374.999991" height="500" preserveAspectRatio="xMidYMid meet" version="1.2"><defs><clipPath id="562572ea98"><path d="M 75 0 L 300 0 C 341.421875 0 375 33.578125 375 75 L 375 300 C 375 341.421875 341.421875 375 300 375 L 75 375 C 33.578125 375 0 341.421875 0 300 L 0 75 C 0 33.578125 33.578125 0 75 0 Z M 75 0 "/></clipPath><linearGradient x1="0" gradientTransform="matrix(1.464844,0,0,1.464844,0.0000045,0)" y1="128" x2="255.999988" gradientUnits="userSpaceOnUse" y2="128" id="71661fc196"><stop style="stop-color:#000000;stop-opacity:1;" offset="0"/><stop style="stop-color:#000000;stop-opacity:1;" offset="0.0078125"/><stop style="stop-color:#010101;stop-opacity:1;" offset="0.015625"/><stop style="stop-color:#020202;stop-opacity:1;" offset="0.0234375"/><stop style="stop-color:#030303;stop-opacity:1;" offset="0.03125"/><stop style="stop-color:#040404;stop-opacity:1;" offset="0.0390625"/><stop style="stop-color:#050505;stop-opacity:1;" offset="0.046875"/><stop style="stop-color:#060606;stop-opacity:1;" offset="0.0546875"/><stop style="stop-color:#070707;stop-opacity:1;" offset="0.0625"/><stop style="stop-color:#080808;stop-opacity:1;" offset="0.0703125"/><stop style="stop-color:#090909;stop-opacity:1;" offset="0.078125"/><stop style="stop-color:#090909;stop-opacity:1;" offset="0.0859375"/><stop style="stop-color:#0a0a0a;stop-opacity:1;" offset="0.09375"/><stop style="stop-color:#0b0b0b;stop-opacity:1;" offset="0.101562"/><stop style="stop-color:#0c0c0c;stop-opacity:1;" offset="0.109375"/><stop style="stop-color:#0d0d0d;stop-opacity:1;" offset="0.117188"/><stop style="stop-color:#0e0e0e;stop-opacity:1;" offset="0.125"/><stop style="stop-color:#0f0f0f;stop-opacity:1;" offset="0.132812"/><stop style="stop-color:#101010;stop-opacity:1;" offset="0.140625"/><stop style="stop-color:#111111;stop-opacity:1;" offset="0.148438"/><stop style="stop-color:#121212;stop-opacity:1;" offset="0.15625"/><stop style="stop-color:#121212;stop-opacity:1;" offset="0.164062"/><stop style="stop-color:#131313;stop-opacity:1;" offset="0.171875"/><stop style="stop-color:#141414;stop-opacity:1;" offset="0.179688"/><stop style="stop-color:#151515;stop-opacity:1;" offset="0.1875"/><stop style="stop-color:#161616;stop-opacity:1;" offset="0.195312"/><stop style="stop-color:#171717;stop-opacity:1;" offset="0.203125"/><stop style="stop-color:#181818;stop-opacity:1;" offset="0.210938"/><stop style="stop-color:#191919;stop-opacity:1;" offset="0.21875"/><stop style="stop-color:#1a1a1a;stop-opacity:1;" offset="0.226562"/><stop style="stop-color:#1b1b1b;stop-opacity:1;" offset="0.234375"/><stop style="stop-color:#1b1b1b;stop-opacity:1;" offset="0.242188"/><stop style="stop-color:#1c1c1c;stop-opacity:1;" offset="0.25"/><stop style="stop-color:#1d1d1d;stop-opacity:1;" offset="0.257812"/><stop style="stop-color:#1e1e1e;stop-opacity:1;" offset="0.265625"/><stop style="stop-color:#1f1f1f;stop-opacity:1;" offset="0.273438"/><stop style="stop-color:#202020;stop-opacity:1;" offset="0.28125"/><stop style="stop-color:#212121;stop-opacity:1;" offset="0.289063"/><stop style="stop-color:#222222;stop-opacity:1;" offset="0.296875"/><stop style="stop-color:#232323;stop-opacity:1;" offset="0.304688"/><stop style="stop-color:#232323;stop-opacity:1;" offset="0.3125"/><stop style="stop-color:#242424;stop-opacity:1;" offset="0.320312"/><stop style="stop-color:#252525;stop-opacity:1;" offset="0.328125"/><stop style="stop-color:#262626;stop-opacity:1;" offset="0.335938"/><stop style="stop-color:#272727;stop-opacity:1;" offset="0.34375"/><stop style="stop-color:#282828;stop-opacity:1;" offset="0.351562"/><stop style="stop-color:#292929;stop-opacity:1;" offset="0.359375"/><stop style="stop-color:#2a2a2a;stop-opacity:1;" offset="0.367188"/><stop style="stop-color:#2b2b2b;stop-opacity:1;" offset="0.375"/><stop style="stop-color:#2c2c2c;stop-opacity:1;" offset="0.382812"/><stop style="stop-color:#2c2c2c;stop-opacity:1;" offset="0.390625"/><stop style="stop-color:#2d2d2d;stop-opacity:1;" offset="0.398438"/><stop style="stop-color:#2e2e2e;stop-opacity:1;" offset="0.40625"/><stop style="stop-color:#2f2f2f;stop-opacity:1;" offset="0.414062"/><stop style="stop-color:#303030;stop-opacity:1;" offset="0.421875"/><stop style="stop-color:#313131;stop-opacity:1;" offset="0.429688"/><stop style="stop-color:#323232;stop-opacity:1;" offset="0.4375"/><stop style="stop-color:#333333;stop-opacity:1;" offset="0.445312"/><stop style="stop-color:#343434;stop-opacity:1;" offset="0.453125"/><stop style="stop-color:#353535;stop-opacity:1;" offset="0.460938"/><stop style="stop-color:#353535;stop-opacity:1;" offset="0.46875"/><stop style="stop-color:#363636;stop-opacity:1;" offset="0.476562"/><stop style="stop-color:#373737;stop-opacity:1;" offset="0.484375"/><stop style="stop-color:#383838;stop-opacity:1;" offset="0.492188"/><stop style="stop-color:#393939;stop-opacity:1;" offset="0.5"/><stop style="stop-color:#3a3a3a;stop-opacity:1;" offset="0.507812"/><stop style="stop-color:#3b3b3b;stop-opacity:1;" offset="0.515625"/><stop style="stop-color:#3c3c3c;stop-opacity:1;" offset="0.523438"/><stop style="stop-color:#3d3d3d;stop-opacity:1;" offset="0.53125"/><stop style="stop-color:#3e3e3e;stop-opacity:1;" offset="0.539062"/><stop style="stop-color:#3e3e3e;stop-opacity:1;" offset="0.546875"/><stop style="stop-color:#3f3f3f;stop-opacity:1;" offset="0.554688"/><stop style="stop-color:#404040;stop-opacity:1;" offset="0.5625"/><stop style="stop-color:#414141;stop-opacity:1;" offset="0.570312"/><stop style="stop-color:#424242;stop-opacity:1;" offset="0.578125"/><stop style="stop-color:#434343;stop-opacity:1;" offset="0.585938"/><stop style="stop-color:#444444;stop-opacity:1;" offset="0.59375"/><stop style="stop-color:#454545;stop-opacity:1;" offset="0.601563"/><stop style="stop-color:#464646;stop-opacity:1;" offset="0.609375"/><stop style="stop-color:#474747;stop-opacity:1;" offset="0.617188"/><stop style="stop-color:#474747;stop-opacity:1;" offset="0.625"/><stop style="stop-color:#484848;stop-opacity:1;" offset="0.632812"/><stop style="stop-color:#494949;stop-opacity:1;" offset="0.640625"/><stop style="stop-color:#4a4a4a;stop-opacity:1;" offset="0.648438"/><stop style="stop-color:#4b4b4b;stop-opacity:1;" offset="0.65625"/><stop style="stop-color:#4c4c4c;stop-opacity:1;" offset="0.664063"/><stop style="stop-color:#4d4d4d;stop-opacity:1;" offset="0.671875"/><stop style="stop-color:#4e4e4e;stop-opacity:1;" offset="0.679688"/><stop style="stop-color:#4f4f4f;stop-opacity:1;" offset="0.6875"/><stop style="stop-color:#505050;stop-opacity:1;" offset="0.695313"/><stop style="stop-color:#505050;stop-opacity:1;" offset="0.703125"/><stop style="stop-color:#515151;stop-opacity:1;" offset="0.710938"/><stop style="stop-color:#525252;stop-opacity:1;" offset="0.71875"/><stop style="stop-color:#535353;stop-opacity:1;" offset="0.726562"/><stop style="stop-color:#545454;stop-opacity:1;" offset="0.734375"/><stop style="stop-color:#555555;stop-opacity:1;" offset="0.742188"/><stop style="stop-color:#565656;stop-opacity:1;" offset="0.75"/><stop style="stop-color:#575757;stop-opacity:1;" offset="0.757812"/><stop style="stop-color:#585858;stop-opacity:1;" offset="0.765625"/><stop style="stop-color:#585858;stop-opacity:1;" offset="0.773438"/><stop style="stop-color:#595959;stop-opacity:1;" offset="0.78125"/><stop style="stop-color:#5a5a5a;stop-opacity:1;" offset="0.789062"/><stop style="stop-color:#5b5b5b;stop-opacity:1;" offset="0.796875"/><stop style="stop-color:#5c5c5c;stop-opacity:1;" offset="0.804688"/><stop style="stop-color:#5d5d5d;stop-opacity:1;" offset="0.8125"/><stop style="stop-color:#5e5e5e;stop-opacity:1;" offset="0.820313"/><stop style="stop-color:#5f5f5f;stop-opacity:1;" offset="0.828125"/><stop style="stop-color:#606060;stop-opacity:1;" offset="0.835938"/><stop style="stop-color:#616161;stop-opacity:1;" offset="0.84375"/><stop style="stop-color:#616161;stop-opacity:1;" offset="0.851562"/><stop style="stop-color:#626262;stop-opacity:1;" offset="0.859375"/><stop style="stop-color:#636363;stop-opacity:1;" offset="0.867188"/><stop style="stop-color:#646464;stop-opacity:1;" offset="0.875"/><stop style="stop-color:#656565;stop-opacity:1;" offset="0.882812"/><stop style="stop-color:#666666;stop-opacity:1;" offset="0.890625"/><stop style="stop-color:#676767;stop-opacity:1;" offset="0.898438"/><stop style="stop-color:#686868;stop-opacity:1;" offset="0.90625"/><stop style="stop-color:#696969;stop-opacity:1;" offset="0.914062"/><stop style="stop-color:#6a6a6a;stop-opacity:1;" offset="0.921875"/><stop style="stop-color:#6a6a6a;stop-opacity:1;" offset="0.929688"/><stop style="stop-color:#6b6b6b;stop-opacity:1;" offset="0.9375"/><stop style="stop-color:#6c6c6c;stop-opacity:1;" offset="0.945312"/><stop style="stop-color:#6d6d6d;stop-opacity:1;" offset="0.953125"/><stop style="stop-color:#6e6e6e;stop-opacity:1;" offset="0.960938"/><stop style="stop-color:#6f6f6f;stop-opacity:1;" offset="0.96875"/><stop style="stop-color:#707070;stop-opacity:1;" offset="0.976562"/><stop style="stop-color:#717171;stop-opacity:1;" offset="0.984375"/><stop style="stop-color:#727272;stop-opacity:1;" offset="0.992188"/><stop style="stop-color:#737373;stop-opacity:1;" offset="1"/></linearGradient><clipPath id="54ee07847f"><path d="M 44 42 L 335 42 L 335 332 L 44 332 Z M 44 42 "/></clipPath><clipPath id="d642826438"><path d="M 38.429688 47.207031 L 295.289062 10.296875 L 336.46875 296.851562 L 79.605469 333.765625 Z M 38.429688 47.207031 "/></clipPath><clipPath id="d4dba8e528"><path d="M 38.429688 47.207031 L 295.289062 10.296875 L 336.46875 296.851562 L 79.605469 333.765625 Z M 38.429688 47.207031 "/></clipPath><clipPath id="a1e6eea69d"><path d="M 38.429688 47.207031 L 295.289062 10.296875 L 336.46875 296.851562 L 79.605469 333.765625 Z M 38.429688 47.207031 "/></clipPath><clipPath id="55582384db"><path d="M 42 41 L 337 41 L 337 334 L 42 334 Z M 42 41 "/></clipPath><clipPath id="70ba753251"><path d="M 38.429688 47.207031 L 295.289062 10.296875 L 336.46875 296.851562 L 79.605469 333.765625 Z M 38.429688 47.207031 "/></clipPath><clipPath id="45ee70e3ec"><path d="M 38.429688 47.207031 L 295.289062 10.296875 L 336.46875 296.851562 L 79.605469 333.765625 Z M 38.429688 47.207031 "/></clipPath><clipPath id="b9506f3270"><path d="M 38.429688 47.207031 L 295.289062 10.296875 L 336.46875 296.851562 L 79.605469 333.765625 Z M 38.429688 47.207031 "/></clipPath><clipPath id="87b1250eb0"><path d="M 64 71 L 305 71 L 305 246 L 64 246 Z M 64 71 "/></clipPath><clipPath id="64c6dfb0c7"><path d="M 38.429688 47.207031 L 295.289062 10.296875 L 336.46875 296.851562 L 79.605469 333.765625 Z M 38.429688 47.207031 "/></clipPath><clipPath id="c98b11a99c"><path d="M 38.429688 47.207031 L 295.289062 10.296875 L 336.46875 296.851562 L 79.605469 333.765625 Z M 38.429688 47.207031 "/></clipPath><clipPath id="be6ac04de7"><path d="M 38.429688 47.207031 L 295.289062 10.296875 L 336.46875 296.851562 L 79.605469 333.765625 Z M 38.429688 47.207031 "/></clipPath><clipPath id="c707b46e72"><path d="M 62 69 L 307 69 L 307 248 L 62 248 Z M 62 69 "/></clipPath><clipPath id="086925ca36"><path d="M 38.429688 47.207031 L 295.289062 10.296875 L 336.46875 296.851562 L 79.605469 333.765625 Z M 38.429688 47.207031 "/></clipPath><clipPath id="eda980b72b"><path d="M 38.429688 47.207031 L 295.289062 10.296875 L 336.46875 296.851562 L 79.605469 333.765625 Z M 38.429688 47.207031 "/></clipPath><clipPath id="65d7b41b41"><path d="M 38.429688 47.207031 L 295.289062 10.296875 L 336.46875 296.851562 L 79.605469 333.765625 Z M 38.429688 47.207031 "/></clipPath><clipPath id="b2097ffeee"><path d="M 96 160 L 134 160 L 134 174 L 96 174 Z M 96 160 "/></clipPath><clipPath id="5245f9cddd"><path d="M 38.429688 47.207031 L 295.289062 10.296875 L 336.46875 296.851562 L 79.605469 333.765625 Z M 38.429688 47.207031 "/></clipPath><clipPath id="5ce0407ea2"><path d="M 38.429688 47.207031 L 295.289062 10.296875 L 336.46875 296.851562 L 79.605469 333.765625 Z M 38.429688 47.207031 "/></clipPath><clipPath id="7a77bf2d93"><path d="M 38.429688 47.207031 L 295.289062 10.296875 L 336.46875 296.851562 L 79.605469 333.765625 Z M 38.429688 47.207031 "/></clipPath><clipPath id="5760ea44a2"><path d="M 231 147 L 269 147 L 269 161 L 231 161 Z M 231 147 "/></clipPath><clipPath id="6dbe6adf2a"><path d="M 38.429688 47.207031 L 295.289062 10.296875 L 336.46875 296.851562 L 79.605469 333.765625 Z M 38.429688 47.207031 "/></clipPath><clipPath id="056094ccdf"><path d="M 38.429688 47.207031 L 295.289062 10.296875 L 336.46875 296.851562 L 79.605469 333.765625 Z M 38.429688 47.207031 "/></clipPath><clipPath id="c7c1065ea7"><path d="M 38.429688 47.207031 L 295.289062 10.296875 L 336.46875 296.851562 L 79.605469 333.765625 Z M 38.429688 47.207031 "/></clipPath><clipPath id="32c5f0cd4c"><path d="M 83 158 L 303 158 L 303 244 L 83 244 Z M 83 158 "/></clipPath><clipPath id="b06c4f8a9f"><path d="M 38.429688 47.207031 L 295.289062 10.296875 L 336.46875 296.851562 L 79.605469 333.765625 Z M 38.429688 47.207031 "/></clipPath><clipPath id="9ea2496c36"><path d="M 38.429688 47.207031 L 295.289062 10.296875 L 336.46875 296.851562 L 79.605469 333.765625 Z M 38.429688 47.207031 "/></clipPath><clipPath id="7d42d60a94"><path d="M 38.429688 47.207031 L 295.289062 10.296875 L 336.46875 296.851562 L 79.605469 333.765625 Z M 38.429688 47.207031 "/></clipPath><clipPath id="428033b1f6"><path d="M 119 133 L 180 133 L 180 155 L 119 155 Z M 119 133 "/></clipPath><clipPath id="002128975f"><path d="M 38.429688 47.207031 L 295.289062 10.296875 L 336.46875 296.851562 L 79.605469 333.765625 Z M 38.429688 47.207031 "/></clipPath><clipPath id="508fd744df"><path d="M 38.429688 47.207031 L 295.289062 10.296875 L 336.46875 296.851562 L 79.605469 333.765625 Z M 38.429688 47.207031 "/></clipPath><clipPath id="d0a4c935ef"><path d="M 38.429688 47.207031 L 295.289062 10.296875 L 336.46875 296.851562 L 79.605469 333.765625 Z M 38.429688 47.207031 "/></clipPath><clipPath id="4d40a10b0a"><path d="M 213 97 L 274 97 L 274 119 L 213 119 Z M 213 97 "/></clipPath><clipPath id="1445de0785"><path d="M 38.429688 47.207031 L 295.289062 10.296875 L 336.46875 296.851562 L 79.605469 333.765625 Z M 38.429688 47.207031 "/></clipPath><clipPath id="68b6f9c4d5"><path d="M 38.429688 47.207031 L 295.289062 10.296875 L 336.46875 296.851562 L 79.605469 333.765625 Z M 38.429688 47.207031 "/></clipPath><clipPath id="0464f943f5"><path d="M 38.429688 47.207031 L 295.289062 10.296875 L 336.46875 296.851562 L 79.605469 333.765625 Z M 38.429688 47.207031 "/></clipPath><clipPath id="7596724ea9"><path d="M 153 30 L 192 30 L 192 93 L 153 93 Z M 153 30 "/></clipPath><clipPath id="934f2f3eb8"><path d="M 38.429688 47.207031 L 295.289062 10.296875 L 336.46875 296.851562 L 79.605469 333.765625 Z M 38.429688 47.207031 "/></clipPath><clipPath id="b6019bc424"><path d="M 38.429688 47.207031 L 295.289062 10.296875 L 336.46875 296.851562 L 79.605469 333.765625 Z M 38.429688 47.207031 "/></clipPath><clipPath id="d2d351046a"><path d="M 38.429688 47.207031 L 295.289062 10.296875 L 336.46875 296.851562 L 79.605469 333.765625 Z M 38.429688 47.207031 "/></clipPath><clipPath id="8a25b57e23"><path d="M 152 29 L 193 29 L 193 94 L 152 94 Z M 152 29 "/></clipPath><clipPath id="4d7b04091c"><path d="M 38.429688 47.207031 L 295.289062 10.296875 L 336.46875 296.851562 L 79.605469 333.765625 Z M 38.429688 47.207031 "/></clipPath><clipPath id="608fc07f73"><path d="M 38.429688 47.207031 L 295.289062 10.296875 L 336.46875 296.851562 L 79.605469 333.765625 Z M 38.429688 47.207031 "/></clipPath><clipPath id="95bd9d5f06"><path d="M 38.429688 47.207031 L 295.289062 10.296875 L 336.46875 296.851562 L 79.605469 333.765625 Z M 38.429688 47.207031 "/></clipPath></defs><g id="30a878e516"><g clip-rule="nonzero" clip-path="url(#562572ea98)"><rect x="0" width="375" y="0" height="374.999991" style="fill:url(#71661fc196);stroke:none;"/></g><g clip-rule="nonzero" clip-path="url(#54ee07847f)"><g clip-rule="nonzero" clip-path="url(#d642826438)"><g clip-rule="nonzero" clip-path="url(#d4dba8e528)"><g clip-rule="nonzero" clip-path="url(#a1e6eea69d)"><path style=" stroke:none;fill-rule:nonzero;fill:#ffffff;fill-opacity:1;" d="M 80.988281 331.980469 L 44.691406 79.386719 L 298.339844 42.933594 L 334.640625 295.53125 L 80.988281 331.980469 "/></g></g></g></g><g clip-rule="nonzero" clip-path="url(#55582384db)"><g clip-rule="nonzero" clip-path="url(#70ba753251)"><g clip-rule="nonzero" clip-path="url(#45ee70e3ec)"><g clip-rule="nonzero" clip-path="url(#b9506f3270)"><path style=" stroke:none;fill-rule:nonzero;fill:#682929;fill-opacity:1;" d="M 299.644531 41.1875 L 42.945312 78.078125 L 79.683594 333.726562 L 336.382812 296.835938 Z M 297.03125 44.679688 L 332.894531 294.226562 L 82.292969 330.238281 L 46.433594 80.691406 L 297.03125 44.679688 "/></g></g></g></g><g clip-rule="nonzero" clip-path="url(#87b1250eb0)"><g clip-rule="nonzero" clip-path="url(#64c6dfb0c7)"><g clip-rule="nonzero" clip-path="url(#c98b11a99c)"><g clip-rule="nonzero" clip-path="url(#be6ac04de7)"><path style=" stroke:none;fill-rule:nonzero;fill:#9ed5e1;fill-opacity:1;" d="M 85.152344 245.421875 L 64.675781 102.9375 L 283.863281 71.441406 L 304.339844 213.921875 L 85.152344 245.421875 "/></g></g></g></g><g clip-rule="nonzero" clip-path="url(#c707b46e72)"><g clip-rule="nonzero" clip-path="url(#086925ca36)"><g clip-rule="nonzero" clip-path="url(#eda980b72b)"><g clip-rule="nonzero" clip-path="url(#65d7b41b41)"><path style=" stroke:none;fill-rule:nonzero;fill:#682929;fill-opacity:1;" d="M 285.167969 69.695312 L 62.933594 101.632812 L 83.847656 247.164062 L 306.082031 215.226562 Z M 282.558594 73.1875 L 302.59375 212.613281 L 86.457031 243.675781 L 66.421875 104.246094 L 282.558594 73.1875 "/></g></g></g></g><g clip-rule="nonzero" clip-path="url(#b2097ffeee)"><g clip-rule="nonzero" clip-path="url(#5245f9cddd)"><g clip-rule="nonzero" clip-path="url(#5ce0407ea2)"><g clip-rule="nonzero" clip-path="url(#7a77bf2d93)"><path style=" stroke:none;fill-rule:nonzero;fill:#f0f4f9;fill-opacity:1;" d="M 96.898438 173.882812 L 133.859375 168.574219 C 133.859375 168.574219 135.796875 165.476562 121.65625 168.160156 C 121.65625 168.160156 125.65625 158.265625 115.980469 164.859375 C 115.980469 164.859375 108.722656 155.0625 104.300781 166.535156 C 104.300781 166.535156 97.101562 161.71875 98.507812 171.484375 C 98.507812 171.484375 94.589844 169.882812 96.898438 173.882812 "/></g></g></g></g><g clip-rule="nonzero" clip-path="url(#5760ea44a2)"><g clip-rule="nonzero" clip-path="url(#6dbe6adf2a)"><g clip-rule="nonzero" clip-path="url(#056094ccdf)"><g clip-rule="nonzero" clip-path="url(#c7c1065ea7)"><path style=" stroke:none;fill-rule:nonzero;fill:#f0f4f9;fill-opacity:1;" d="M 231.894531 160.035156 L 268.851562 154.722656 C 268.851562 154.722656 270.789062 151.628906 256.652344 154.308594 C 256.652344 154.308594 260.652344 144.417969 250.976562 151.007812 C 250.976562 151.007812 243.714844 141.214844 239.292969 152.6875 C 239.292969 152.6875 232.097656 147.867188 233.5 157.636719 C 233.5 157.636719 229.585938 156.03125 231.894531 160.035156 "/></g></g></g></g><g clip-rule="nonzero" clip-path="url(#32c5f0cd4c)"><g clip-rule="nonzero" clip-path="url(#b06c4f8a9f)"><g clip-rule="nonzero" clip-path="url(#9ea2496c36)"><g clip-rule="nonzero" clip-path="url(#7d42d60a94)"><path style=" stroke:none;fill-rule:nonzero;fill:#7dcc3b;fill-opacity:1;" d="M 83.972656 226.394531 C 83.972656 226.394531 94.140625 168.351562 159.277344 159.097656 C 190.878906 154.605469 259.925781 197.382812 300.113281 195.335938 L 302.59375 212.613281 L 86.457031 243.675781 L 83.972656 226.394531 "/></g></g></g></g><g clip-rule="nonzero" clip-path="url(#428033b1f6)"><g clip-rule="nonzero" clip-path="url(#002128975f)"><g clip-rule="nonzero" clip-path="url(#508fd744df)"><g clip-rule="nonzero" clip-path="url(#d0a4c935ef)"><path style=" stroke:none;fill-rule:nonzero;fill:#f0f4f9;fill-opacity:1;" d="M 120.363281 154.597656 L 179.328125 146.125 C 179.328125 146.125 182.421875 141.1875 159.863281 145.46875 C 159.863281 145.46875 166.242188 129.679688 150.808594 140.199219 C 150.808594 140.199219 139.222656 124.570312 132.171875 142.875 C 132.171875 142.875 120.6875 135.1875 122.925781 150.773438 C 122.925781 150.773438 116.683594 148.214844 120.363281 154.597656 "/></g></g></g></g><g clip-rule="nonzero" clip-path="url(#4d40a10b0a)"><g clip-rule="nonzero" clip-path="url(#1445de0785)"><g clip-rule="nonzero" clip-path="url(#68b6f9c4d5)"><g clip-rule="nonzero" clip-path="url(#0464f943f5)"><path style=" stroke:none;fill-rule:nonzero;fill:#f0f4f9;fill-opacity:1;" d="M 214.75 118.210938 L 273.714844 109.738281 C 273.714844 109.738281 276.808594 104.800781 254.25 109.078125 C 254.25 109.078125 260.628906 93.292969 245.191406 103.808594 C 245.191406 103.808594 233.605469 88.183594 226.554688 106.488281 C 226.554688 106.488281 215.070312 98.800781 217.308594 114.386719 C 217.308594 114.386719 211.0625 111.828125 214.75 118.210938 "/></g></g></g></g><g clip-rule="nonzero" clip-path="url(#7596724ea9)"><g clip-rule="nonzero" clip-path="url(#934f2f3eb8)"><g clip-rule="nonzero" clip-path="url(#b6019bc424)"><g clip-rule="nonzero" clip-path="url(#d2d351046a)"><path style=" stroke:none;fill-rule:nonzero;fill:#f68712;fill-opacity:1;" d="M 178.800781 92.882812 C 180.269531 86.511719 177.609375 90.921875 174.890625 91.984375 C 173.113281 88.957031 171.949219 79.730469 166.28125 89.996094 C 162.675781 91.359375 159.789062 89.601562 157.683594 88.011719 C 154.910156 89.339844 153.957031 86.332031 153.773438 87.109375 C 153.609375 87.824219 152.921875 90.8125 154.222656 85.175781 C 154.234375 85.117188 153.449219 88.539062 155.414062 80.007812 C 154.679688 83.191406 156.5 75.324219 157.136719 72.570312 C 158.410156 67.0625 159.886719 60.679688 161.265625 54.691406 C 162.125 50.953125 164 42.839844 163.675781 44.25 C 165.582031 35.992188 164.667969 39.957031 165.4375 36.613281 C 166.804688 30.703125 166.402344 32.441406 166.121094 33.652344 C 167.132812 29.285156 166.832031 37.71875 170.03125 34.554688 C 174.082031 27.710938 176.722656 30.539062 178.632812 36.539062 C 181.277344 39.351562 184.171875 41.082031 187.234375 38.523438 C 189.058594 41.308594 190.679688 41.414062 191.136719 39.425781 C 191.035156 39.878906 191.136719 39.441406 190.457031 42.386719 C 190.023438 44.257812 189.414062 46.90625 188.695312 50.023438 C 186.894531 57.816406 184.421875 68.53125 182.398438 77.300781 C 181.722656 80.222656 181.097656 82.929688 180.566406 85.234375 C 180.167969 86.957031 180.113281 87.179688 179.28125 90.796875 C 180.183594 86.878906 179.429688 90.152344 178.800781 92.882812 "/></g></g></g></g><g clip-rule="nonzero" clip-path="url(#8a25b57e23)"><g clip-rule="nonzero" clip-path="url(#4d7b04091c)"><g clip-rule="nonzero" clip-path="url(#608fc07f73)"><g clip-rule="nonzero" clip-path="url(#95bd9d5f06)"><path style=" stroke:none;fill-rule:nonzero;fill:#682929;fill-opacity:1;" d="M 178.800781 92.882812 L 179.816406 93.117188 C 180.003906 92.332031 180.125 91.691406 180.195312 91.160156 C 180.265625 90.628906 180.289062 90.214844 180.234375 89.804688 C 180.1875 89.507812 180.101562 89.160156 179.78125 88.835938 C 179.621094 88.675781 179.398438 88.554688 179.191406 88.5 C 178.976562 88.449219 178.78125 88.449219 178.617188 88.472656 C 178.351562 88.515625 178.160156 88.597656 177.980469 88.6875 C 177.667969 88.847656 177.398438 89.039062 177.117188 89.25 C 176.695312 89.570312 176.25 89.929688 175.796875 90.257812 C 175.347656 90.582031 174.894531 90.859375 174.507812 91.007812 L 174.890625 91.984375 L 175.792969 91.453125 C 175.550781 91.042969 175.273438 90.375 174.984375 89.636719 C 174.546875 88.527344 174.085938 87.246094 173.453125 86.179688 C 173.128906 85.648438 172.761719 85.15625 172.257812 84.773438 C 172.003906 84.582031 171.707031 84.421875 171.378906 84.324219 C 171.050781 84.230469 170.6875 84.203125 170.332031 84.253906 C 169.890625 84.316406 169.464844 84.492188 169.070312 84.75 C 168.46875 85.136719 167.902344 85.699219 167.296875 86.472656 C 166.695312 87.242188 166.0625 88.230469 165.367188 89.488281 L 166.28125 89.996094 L 165.914062 89.015625 C 165.433594 89.195312 164.976562 89.3125 164.535156 89.375 C 163.3125 89.550781 162.21875 89.332031 161.175781 88.902344 C 160.136719 88.476562 159.175781 87.828125 158.316406 87.175781 L 157.808594 86.789062 L 157.230469 87.066406 C 156.953125 87.199219 156.726562 87.261719 156.535156 87.289062 C 156.261719 87.328125 156.074219 87.296875 155.894531 87.234375 C 155.628906 87.136719 155.375 86.9375 155.148438 86.710938 C 155.03125 86.597656 154.929688 86.484375 154.796875 86.355469 C 154.730469 86.292969 154.65625 86.222656 154.523438 86.132812 C 154.457031 86.089844 154.371094 86.035156 154.242188 85.992188 C 154.113281 85.949219 153.929688 85.910156 153.710938 85.941406 C 153.539062 85.964844 153.363281 86.039062 153.230469 86.132812 C 153.027344 86.28125 152.921875 86.445312 152.859375 86.570312 C 152.796875 86.699219 152.773438 86.800781 152.75 86.890625 L 153.773438 87.109375 L 152.753906 86.871094 C 152.667969 87.257812 152.425781 88.300781 152.425781 88.300781 L 153.445312 88.539062 L 154.304688 87.941406 L 153.445312 88.539062 L 153.59375 89.578125 C 153.882812 89.527344 154.03125 89.410156 154.121094 89.335938 C 154.292969 89.183594 154.316406 89.117188 154.351562 89.0625 C 154.40625 88.96875 154.410156 88.941406 154.421875 88.914062 L 154.453125 88.816406 L 154.464844 88.78125 C 154.476562 88.730469 154.523438 88.523438 154.648438 88 C 154.765625 87.480469 154.957031 86.65625 155.242188 85.410156 L 155.289062 85.21875 L 155.261719 85.027344 C 155.242188 84.890625 155.183594 84.699219 155.050781 84.527344 C 154.917969 84.355469 154.714844 84.230469 154.550781 84.179688 C 154.273438 84.082031 153.964844 84.113281 153.710938 84.257812 C 153.453125 84.402344 153.265625 84.648438 153.199219 84.9375 L 153.054688 85.566406 L 154.074219 85.800781 L 155.113281 85.652344 L 154.074219 85.800781 L 155.097656 86.035156 L 154.683594 85.9375 L 155.097656 86.035156 L 154.683594 85.9375 L 155.097656 86.035156 C 155.117188 85.964844 155.371094 84.851562 156.4375 80.246094 L 154.394531 79.769531 C 154.273438 80.289062 154.222656 80.515625 154.222656 80.515625 L 155.242188 80.753906 L 156.277344 80.601562 C 156.261719 80.519531 156.253906 80.390625 156.101562 80.15625 C 156.027344 80.042969 155.890625 79.902344 155.691406 79.808594 C 155.496094 79.710938 155.261719 79.6875 155.09375 79.714844 L 155.242188 80.753906 L 156.265625 80.988281 C 156.265625 80.988281 156.601562 79.519531 157.007812 77.757812 C 157.417969 76 157.890625 73.957031 158.15625 72.804688 C 159.429688 67.296875 160.90625 60.914062 162.285156 54.925781 C 163.078125 51.480469 164.730469 44.320312 164.734375 44.320312 C 164.855469 43.792969 164.554688 43.257812 164.042969 43.09375 L 164.039062 43.089844 C 163.761719 42.996094 163.453125 43.03125 163.191406 43.171875 C 162.9375 43.320312 162.75 43.570312 162.6875 43.863281 C 162.6875 43.863281 162.675781 43.914062 162.652344 44.027344 L 164.695312 44.484375 C 166.601562 36.230469 165.6875 40.191406 166.460938 36.847656 C 166.832031 35.238281 167.070312 34.191406 167.21875 33.550781 C 167.292969 33.234375 167.34375 33.015625 167.375 32.871094 L 167.410156 32.722656 L 167.421875 32.683594 L 167.425781 32.664062 L 167.425781 32.648438 L 167.433594 32.621094 L 167.441406 32.5625 L 167.449219 32.441406 L 166.402344 32.441406 L 167.421875 32.679688 C 167.496094 32.339844 167.40625 31.988281 167.171875 31.730469 C 166.9375 31.476562 166.59375 31.351562 166.25 31.402344 L 166.402344 32.441406 L 166.730469 31.445312 C 166.464844 31.363281 166.339844 31.398438 166.25 31.402344 L 166.402344 32.441406 L 166.730469 31.445312 L 166.402344 32.441406 L 167.179688 31.742188 C 167.035156 31.578125 166.863281 31.488281 166.730469 31.445312 L 166.402344 32.441406 L 167.179688 31.742188 L 166.402344 32.441406 L 167.4375 32.289062 C 167.417969 32.117188 167.328125 31.902344 167.179688 31.742188 L 166.402344 32.441406 L 167.4375 32.289062 C 167.359375 31.75 166.878906 31.359375 166.335938 31.394531 C 165.785156 31.425781 165.363281 31.875 165.351562 32.421875 L 166.402344 32.441406 L 165.363281 32.28125 C 165.359375 32.304688 165.359375 32.308594 165.351562 32.421875 L 166.402344 32.441406 L 165.363281 32.28125 L 166.402344 32.441406 L 165.375 32.226562 L 165.363281 32.28125 L 166.402344 32.441406 L 165.375 32.226562 L 166.375 32.4375 L 165.378906 32.210938 L 165.375 32.226562 L 166.375 32.4375 L 165.378906 32.210938 C 165.375 32.226562 165.222656 32.878906 165.101562 33.417969 L 167.144531 33.886719 C 167.238281 33.457031 167.328125 33.171875 167.371094 33.066406 L 167.390625 33.023438 L 166.9375 32.789062 L 167.300781 33.140625 C 167.378906 33.058594 167.390625 33.019531 167.390625 33.023438 L 166.9375 32.789062 L 167.300781 33.140625 L 166.644531 32.511719 L 166.773438 33.402344 C 167.0625 33.363281 167.230469 33.214844 167.300781 33.140625 L 166.644531 32.511719 L 166.773438 33.402344 L 166.636719 32.457031 L 166.351562 33.371094 C 166.472656 33.410156 166.628906 33.425781 166.773438 33.402344 L 166.636719 32.457031 L 166.351562 33.371094 L 166.609375 32.542969 L 165.957031 33.121094 C 166.011719 33.175781 166.109375 33.292969 166.351562 33.371094 L 166.609375 32.542969 L 165.957031 33.121094 L 166.289062 32.828125 L 165.902344 33.046875 L 165.957031 33.121094 L 166.289062 32.828125 L 165.902344 33.046875 C 165.90625 33.050781 165.9375 33.121094 165.980469 33.222656 C 166.050781 33.40625 166.140625 33.679688 166.257812 33.984375 C 166.4375 34.441406 166.652344 34.964844 167.03125 35.453125 C 167.230469 35.695312 167.476562 35.9375 167.816406 36.113281 C 168.152344 36.292969 168.585938 36.371094 169 36.308594 C 169.332031 36.261719 169.636719 36.140625 169.925781 35.964844 C 170.21875 35.796875 170.488281 35.574219 170.765625 35.300781 L 170.863281 35.207031 L 170.933594 35.085938 C 171.671875 33.84375 172.34375 32.960938 172.914062 32.414062 C 173.488281 31.859375 173.9375 31.660156 174.21875 31.625 C 174.453125 31.59375 174.621094 31.628906 174.882812 31.777344 C 175.265625 31.996094 175.773438 32.566406 176.25 33.449219 C 176.734375 34.332031 177.199219 35.5 177.632812 36.855469 L 177.703125 37.082031 L 177.863281 37.253906 C 178.867188 38.3125 179.914062 39.257812 181.070312 39.921875 C 182.214844 40.582031 183.515625 40.964844 184.871094 40.765625 C 185.914062 40.621094 186.9375 40.132812 187.902344 39.324219 L 187.234375 38.523438 L 186.355469 39.097656 C 186.941406 39.988281 187.519531 40.660156 188.132812 41.136719 C 188.441406 41.371094 188.757812 41.5625 189.101562 41.6875 C 189.445312 41.808594 189.824219 41.863281 190.207031 41.808594 C 190.738281 41.742188 191.226562 41.429688 191.535156 41.035156 C 191.851562 40.640625 192.039062 40.175781 192.160156 39.664062 L 190.117188 39.191406 C 190.015625 39.644531 190.113281 39.203125 189.4375 42.152344 C 189.003906 44.019531 188.390625 46.671875 187.671875 49.785156 C 185.875 57.578125 183.398438 68.292969 181.375 77.0625 C 180.703125 79.984375 180.078125 82.691406 179.542969 85 C 179.144531 86.722656 179.09375 86.945312 178.257812 90.558594 L 180.300781 91.03125 C 180.601562 89.730469 180.71875 89.222656 180.71875 89.222656 C 180.796875 88.886719 180.703125 88.535156 180.46875 88.28125 C 180.234375 88.023438 179.890625 87.902344 179.546875 87.949219 L 179.695312 88.988281 L 180.027344 87.992188 C 179.761719 87.914062 179.632812 87.945312 179.546875 87.949219 L 179.695312 88.988281 L 180.027344 87.992188 L 179.695312 88.988281 L 180.476562 88.289062 C 180.332031 88.125 180.15625 88.039062 180.027344 87.992188 L 179.695312 88.988281 L 180.476562 88.289062 L 179.695312 88.988281 L 180.734375 88.839844 C 180.714844 88.667969 180.625 88.449219 180.476562 88.289062 L 179.695312 88.988281 L 180.734375 88.839844 C 180.664062 88.339844 180.246094 87.960938 179.742188 87.941406 C 179.238281 87.921875 178.789062 88.261719 178.675781 88.753906 C 178.675781 88.753906 178.199219 90.820312 177.777344 92.652344 L 179.816406 93.117188 L 178.800781 92.882812 L 179.816406 93.117188 C 180.03125 92.203125 180.253906 91.230469 180.425781 90.488281 C 180.511719 90.113281 180.585938 89.796875 180.636719 89.578125 C 180.664062 89.464844 180.683594 89.378906 180.699219 89.316406 L 180.710938 89.246094 L 180.714844 89.226562 L 180.71875 89.21875 L 180.722656 89.214844 L 180.71875 89.203125 L 180.726562 89.191406 L 180.730469 89.15625 L 180.738281 89.109375 L 179.695312 88.988281 L 178.660156 89.136719 C 178.679688 89.308594 178.765625 89.527344 178.917969 89.6875 C 179.023438 89.808594 179.152344 89.890625 179.261719 89.941406 C 179.429688 90.015625 179.550781 90.027344 179.644531 90.035156 C 179.734375 90.039062 179.796875 90.03125 179.84375 90.027344 L 179.695312 88.988281 L 178.675781 88.753906 C 178.675781 88.753906 178.558594 89.261719 178.257812 90.558594 L 180.300781 91.03125 C 181.132812 87.417969 181.1875 87.195312 181.585938 85.46875 C 182.117188 83.164062 182.742188 80.457031 183.417969 77.535156 C 185.441406 68.765625 187.914062 58.050781 189.714844 50.257812 C 190.433594 47.140625 191.042969 44.492188 191.480469 42.625 C 192.15625 39.675781 192.054688 40.113281 192.160156 39.660156 L 190.117188 39.1875 C 190.050781 39.488281 189.953125 39.664062 189.902344 39.71875 L 189.878906 39.746094 L 189.875 39.75 L 189.921875 39.820312 L 189.910156 39.738281 L 189.875 39.75 L 189.921875 39.820312 L 189.910156 39.738281 L 189.914062 39.753906 L 189.914062 39.738281 L 189.910156 39.738281 L 189.914062 39.753906 L 189.914062 39.738281 C 189.90625 39.734375 189.859375 39.734375 189.757812 39.691406 C 189.609375 39.628906 189.363281 39.464844 189.074219 39.175781 C 188.789062 38.890625 188.457031 38.480469 188.109375 37.949219 L 187.464844 36.960938 L 186.558594 37.71875 C 185.824219 38.328125 185.175781 38.605469 184.574219 38.695312 C 183.792969 38.804688 183 38.605469 182.113281 38.101562 C 181.230469 37.597656 180.308594 36.792969 179.394531 35.820312 L 178.632812 36.539062 L 179.628906 36.21875 C 179.011719 34.300781 178.335938 32.667969 177.476562 31.453125 C 177.039062 30.847656 176.554688 30.335938 175.957031 29.976562 C 175.371094 29.617188 174.640625 29.4375 173.917969 29.550781 C 173.035156 29.679688 172.230469 30.164062 171.460938 30.90625 C 170.691406 31.648438 169.929688 32.671875 169.128906 34.023438 L 170.03125 34.554688 L 169.296875 33.808594 C 169.113281 33.988281 168.960938 34.101562 168.859375 34.167969 C 168.753906 34.226562 168.703125 34.234375 168.703125 34.234375 L 168.722656 34.355469 L 168.769531 34.246094 L 168.703125 34.234375 L 168.722656 34.355469 L 168.769531 34.246094 C 168.742188 34.230469 168.621094 34.101562 168.507812 33.886719 C 168.328125 33.5625 168.164062 33.09375 168.011719 32.675781 C 167.929688 32.460938 167.859375 32.265625 167.742188 32.039062 C 167.675781 31.929688 167.605469 31.800781 167.441406 31.644531 C 167.355469 31.566406 167.246094 31.476562 167.078125 31.40625 C 166.910156 31.335938 166.6875 31.296875 166.476562 31.328125 C 166.253906 31.359375 166.070312 31.457031 165.945312 31.550781 C 165.722656 31.722656 165.636719 31.875 165.558594 32.003906 C 165.449219 32.207031 165.382812 32.390625 165.3125 32.617188 C 165.242188 32.839844 165.175781 33.101562 165.101562 33.417969 L 167.144531 33.886719 C 167.207031 33.609375 167.277344 33.304688 167.332031 33.070312 C 167.355469 32.957031 167.378906 32.859375 167.394531 32.785156 L 167.414062 32.703125 L 167.421875 32.675781 L 167.421875 32.671875 L 167.425781 32.664062 L 167.425781 32.648438 L 167.429688 32.625 L 167.4375 32.585938 L 167.445312 32.523438 L 166.402344 32.441406 L 165.363281 32.589844 C 165.382812 32.761719 165.472656 32.980469 165.621094 33.140625 C 165.730469 33.261719 165.855469 33.34375 165.964844 33.394531 C 166.132812 33.46875 166.257812 33.480469 166.347656 33.488281 C 166.441406 33.488281 166.5 33.484375 166.550781 33.476562 L 166.402344 32.441406 L 165.382812 32.207031 C 165.378906 32.207031 165.160156 33.152344 164.414062 36.378906 C 163.644531 39.722656 164.558594 35.757812 162.652344 44.015625 L 163.675781 44.25 L 164.699219 44.472656 C 164.722656 44.359375 164.738281 44.308594 164.738281 44.308594 L 163.710938 44.085938 L 163.382812 45.078125 L 163.382812 45.082031 L 163.710938 44.085938 L 162.691406 43.847656 L 162.691406 43.851562 C 162.636719 44.078125 161.027344 51.0625 160.242188 54.457031 C 158.863281 60.445312 157.390625 66.828125 156.117188 72.332031 L 156.117188 72.328125 C 155.582031 74.632812 154.222656 80.519531 154.222656 80.519531 C 154.140625 80.855469 154.238281 81.207031 154.46875 81.460938 C 154.707031 81.71875 155.046875 81.839844 155.390625 81.789062 L 155.242188 80.753906 L 154.789062 81.699219 C 154.984375 81.796875 155.21875 81.816406 155.390625 81.789062 L 155.242188 80.753906 L 154.789062 81.699219 L 155.242188 80.753906 L 154.449219 81.441406 C 154.527344 81.53125 154.644531 81.628906 154.789062 81.699219 L 155.242188 80.753906 L 154.449219 81.441406 L 155.242188 80.753906 L 154.253906 81.097656 C 154.28125 81.183594 154.332031 81.300781 154.449219 81.441406 L 155.242188 80.753906 L 154.253906 81.097656 L 155.242188 80.753906 L 154.203125 80.902344 C 154.214844 80.949219 154.222656 81.015625 154.253906 81.097656 L 155.242188 80.753906 L 154.203125 80.902344 C 154.273438 81.402344 154.691406 81.777344 155.195312 81.800781 C 155.699219 81.824219 156.148438 81.480469 156.265625 80.988281 C 156.265625 80.988281 156.316406 80.765625 156.4375 80.242188 L 154.394531 79.769531 C 153.292969 84.527344 153.054688 85.566406 153.054688 85.566406 C 153.027344 85.695312 153.019531 85.816406 153.039062 85.953125 C 153.109375 86.449219 153.53125 86.828125 154.035156 86.851562 C 154.535156 86.867188 154.984375 86.527344 155.097656 86.035156 C 155.097656 86.035156 155.136719 85.878906 155.171875 85.722656 L 155.222656 85.503906 L 155.238281 85.433594 L 155.242188 85.410156 L 155.242188 85.40625 L 154.222656 85.171875 L 153.890625 86.167969 L 154.21875 85.171875 L 153.394531 85.816406 C 153.527344 85.988281 153.726562 86.113281 153.890625 86.167969 L 154.21875 85.171875 L 153.394531 85.816406 L 154.21875 85.175781 L 153.1875 85.324219 C 153.203125 85.460938 153.261719 85.644531 153.394531 85.816406 L 154.21875 85.175781 L 153.1875 85.324219 L 154.222656 85.175781 L 153.199219 84.9375 C 152.601562 87.539062 152.425781 88.296875 152.421875 88.300781 C 152.355469 88.589844 152.414062 88.894531 152.582031 89.132812 C 152.816406 89.476562 153.238281 89.644531 153.640625 89.566406 C 154.050781 89.488281 154.371094 89.179688 154.464844 88.777344 C 154.464844 88.773438 154.710938 87.730469 154.796875 87.347656 L 154.800781 87.332031 L 154.042969 87.167969 L 154.683594 87.59375 C 154.78125 87.441406 154.789062 87.363281 154.800781 87.332031 L 154.042969 87.167969 L 154.683594 87.59375 L 153.886719 87.066406 L 154.441406 87.847656 C 154.558594 87.765625 154.632812 87.667969 154.683594 87.59375 L 153.886719 87.066406 L 154.441406 87.847656 L 153.871094 87.042969 L 154.007812 88.015625 C 154.160156 87.996094 154.320312 87.929688 154.441406 87.847656 L 153.871094 87.042969 L 154.007812 88.015625 L 153.875 87.082031 L 153.476562 87.941406 C 153.566406 87.984375 153.75 88.050781 154.007812 88.015625 L 153.875 87.082031 L 153.476562 87.941406 L 153.777344 87.300781 L 153.339844 87.859375 C 153.355469 87.875 153.390625 87.898438 153.476562 87.941406 L 153.777344 87.300781 L 153.339844 87.859375 L 153.492188 87.664062 L 153.328125 87.847656 L 153.339844 87.859375 L 153.492188 87.664062 L 153.328125 87.847656 C 153.335938 87.855469 153.472656 87.996094 153.636719 88.164062 C 153.898438 88.425781 154.277344 88.777344 154.8125 89.042969 C 155.34375 89.316406 156.050781 89.480469 156.832031 89.367188 C 157.253906 89.304688 157.6875 89.167969 158.136719 88.953125 L 157.683594 88.011719 L 157.050781 88.847656 C 157.972656 89.542969 159.078125 90.300781 160.375 90.839844 C 161.667969 91.378906 163.179688 91.691406 164.832031 91.449219 C 165.425781 91.363281 166.035156 91.210938 166.65625 90.976562 L 167.015625 90.839844 L 167.203125 90.5 C 168.074219 88.917969 168.828125 87.839844 169.429688 87.1875 C 169.734375 86.863281 169.996094 86.644531 170.199219 86.515625 C 170.40625 86.382812 170.546875 86.339844 170.632812 86.328125 C 170.726562 86.316406 170.765625 86.324219 170.847656 86.359375 C 170.988281 86.414062 171.261719 86.640625 171.535156 87.070312 C 171.953125 87.703125 172.371094 88.6875 172.753906 89.6875 C 173.148438 90.691406 173.515625 91.699219 173.988281 92.511719 L 174.441406 93.285156 L 175.273438 92.957031 C 176.257812 92.566406 177.089844 91.917969 177.785156 91.382812 C 178.128906 91.113281 178.433594 90.875 178.664062 90.71875 C 178.777344 90.640625 178.871094 90.585938 178.925781 90.554688 L 178.972656 90.535156 L 178.878906 90.269531 L 178.917969 90.546875 L 178.972656 90.535156 L 178.878906 90.269531 L 178.917969 90.546875 L 178.824219 89.894531 L 178.65625 90.53125 C 178.777344 90.558594 178.871094 90.554688 178.917969 90.546875 L 178.824219 89.894531 L 178.65625 90.53125 L 178.847656 89.8125 L 178.21875 90.21875 C 178.28125 90.332031 178.476562 90.492188 178.65625 90.53125 L 178.847656 89.8125 L 178.21875 90.21875 L 178.632812 89.953125 L 178.160156 90.101562 L 178.21875 90.21875 L 178.632812 89.953125 L 178.160156 90.101562 C 178.175781 90.175781 178.175781 90.457031 178.117188 90.886719 C 178.058594 91.316406 177.949219 91.898438 177.777344 92.652344 L 179.816406 93.117188 L 178.800781 92.882812 "/></g></g></g></g></g></svg>