<svg xmlns="http://www.w3.org/2000/svg" xmlns:xlink="http://www.w3.org/1999/xlink" width="500" zoomAndPan="magnify" viewBox="0 0 375 374.999991" height="500" preserveAspectRatio="xMidYMid meet" version="1.2"><defs><clipPath id="ba9d74af31"><path d="M 0 300 L 0 75 C 0 33.578125 33.578125 0 75 0 L 300 0 C 341.421875 0 375 33.578125 375 75 L 375 300 C 375 341.421875 341.421875 375 300 375 L 75 375 C 33.578125 375 0 341.421875 0 300 Z M 0 300 "/></clipPath><linearGradient x1="0.000012032" gradientTransform="matrix(0,-1.464844,1.464844,0,0.0000045,374.999993)" y1="128" x2="256" gradientUnits="userSpaceOnUse" y2="128" id="df57c304e1"><stop style="stop-color:#a6a6a6;stop-opacity:1;" offset="0"/><stop style="stop-color:#a6a6a6;stop-opacity:1;" offset="0.0078125"/><stop style="stop-color:#a7a7a7;stop-opacity:1;" offset="0.015625"/><stop style="stop-color:#a8a8a8;stop-opacity:1;" offset="0.0234375"/><stop style="stop-color:#a8a8a8;stop-opacity:1;" offset="0.03125"/><stop style="stop-color:#a9a9a9;stop-opacity:1;" offset="0.0390625"/><stop style="stop-color:#aaaaaa;stop-opacity:1;" offset="0.046875"/><stop style="stop-color:#ababab;stop-opacity:1;" offset="0.0546875"/><stop style="stop-color:#ababab;stop-opacity:1;" offset="0.0625"/><stop style="stop-color:#acacac;stop-opacity:1;" offset="0.0703125"/><stop style="stop-color:#adadad;stop-opacity:1;" offset="0.078125"/><stop style="stop-color:#adadad;stop-opacity:1;" offset="0.0859375"/><stop style="stop-color:#aeaeae;stop-opacity:1;" offset="0.09375"/><stop style="stop-color:#afafaf;stop-opacity:1;" offset="0.101562"/><stop style="stop-color:#afafaf;stop-opacity:1;" offset="0.109375"/><stop style="stop-color:#b0b0b0;stop-opacity:1;" offset="0.117188"/><stop style="stop-color:#b1b1b1;stop-opacity:1;" offset="0.125"/><stop style="stop-color:#b1b1b1;stop-opacity:1;" offset="0.132812"/><stop style="stop-color:#b2b2b2;stop-opacity:1;" offset="0.140625"/><stop style="stop-color:#b3b3b3;stop-opacity:1;" offset="0.148438"/><stop style="stop-color:#b4b4b4;stop-opacity:1;" offset="0.15625"/><stop style="stop-color:#b4b4b4;stop-opacity:1;" offset="0.164062"/><stop style="stop-color:#b5b5b5;stop-opacity:1;" offset="0.171875"/><stop style="stop-color:#b6b6b6;stop-opacity:1;" offset="0.179688"/><stop style="stop-color:#b6b6b6;stop-opacity:1;" offset="0.1875"/><stop style="stop-color:#b7b7b7;stop-opacity:1;" offset="0.195312"/><stop style="stop-color:#b8b8b8;stop-opacity:1;" offset="0.203125"/><stop style="stop-color:#b8b8b8;stop-opacity:1;" offset="0.210938"/><stop style="stop-color:#b9b9b9;stop-opacity:1;" offset="0.21875"/><stop style="stop-color:#bababa;stop-opacity:1;" offset="0.226562"/><stop style="stop-color:#bbbbbb;stop-opacity:1;" offset="0.234375"/><stop style="stop-color:#bbbbbb;stop-opacity:1;" offset="0.242188"/><stop style="stop-color:#bcbcbc;stop-opacity:1;" offset="0.25"/><stop style="stop-color:#bdbdbd;stop-opacity:1;" offset="0.257812"/><stop style="stop-color:#bdbdbd;stop-opacity:1;" offset="0.265625"/><stop style="stop-color:#bebebe;stop-opacity:1;" offset="0.273438"/><stop style="stop-color:#bfbfbf;stop-opacity:1;" offset="0.28125"/><stop style="stop-color:#bfbfbf;stop-opacity:1;" offset="0.289063"/><stop style="stop-color:#c0c0c0;stop-opacity:1;" offset="0.296875"/><stop style="stop-color:#c1c1c1;stop-opacity:1;" offset="0.304688"/><stop style="stop-color:#c1c1c1;stop-opacity:1;" offset="0.3125"/><stop style="stop-color:#c2c2c2;stop-opacity:1;" offset="0.320312"/><stop style="stop-color:#c3c3c3;stop-opacity:1;" offset="0.328125"/><stop style="stop-color:#c4c4c4;stop-opacity:1;" offset="0.335938"/><stop style="stop-color:#c4c4c4;stop-opacity:1;" offset="0.34375"/><stop style="stop-color:#c5c5c5;stop-opacity:1;" offset="0.351562"/><stop style="stop-color:#c6c6c6;stop-opacity:1;" offset="0.359375"/><stop style="stop-color:#c6c6c6;stop-opacity:1;" offset="0.367188"/><stop style="stop-color:#c7c7c7;stop-opacity:1;" offset="0.375"/><stop style="stop-color:#c8c8c8;stop-opacity:1;" offset="0.382812"/><stop style="stop-color:#c8c8c8;stop-opacity:1;" offset="0.390625"/><stop style="stop-color:#c9c9c9;stop-opacity:1;" offset="0.398438"/><stop style="stop-color:#cacaca;stop-opacity:1;" offset="0.40625"/><stop style="stop-color:#cbcbcb;stop-opacity:1;" offset="0.414062"/><stop style="stop-color:#cbcbcb;stop-opacity:1;" offset="0.421875"/><stop style="stop-color:#cccccc;stop-opacity:1;" offset="0.429688"/><stop style="stop-color:#cdcdcd;stop-opacity:1;" offset="0.4375"/><stop style="stop-color:#cdcdcd;stop-opacity:1;" offset="0.445312"/><stop style="stop-color:#cecece;stop-opacity:1;" offset="0.453125"/><stop style="stop-color:#cfcfcf;stop-opacity:1;" offset="0.460938"/><stop style="stop-color:#cfcfcf;stop-opacity:1;" offset="0.46875"/><stop style="stop-color:#d0d0d0;stop-opacity:1;" offset="0.476562"/><stop style="stop-color:#d1d1d1;stop-opacity:1;" offset="0.484375"/><stop style="stop-color:#d1d1d1;stop-opacity:1;" offset="0.492188"/><stop style="stop-color:#d2d2d2;stop-opacity:1;" offset="0.5"/><stop style="stop-color:#d3d3d3;stop-opacity:1;" offset="0.507812"/><stop style="stop-color:#d4d4d4;stop-opacity:1;" offset="0.515625"/><stop style="stop-color:#d4d4d4;stop-opacity:1;" offset="0.523438"/><stop style="stop-color:#d5d5d5;stop-opacity:1;" offset="0.53125"/><stop style="stop-color:#d6d6d6;stop-opacity:1;" offset="0.539062"/><stop style="stop-color:#d6d6d6;stop-opacity:1;" offset="0.546875"/><stop style="stop-color:#d7d7d7;stop-opacity:1;" offset="0.554688"/><stop style="stop-color:#d8d8d8;stop-opacity:1;" offset="0.5625"/><stop style="stop-color:#d8d8d8;stop-opacity:1;" offset="0.570312"/><stop style="stop-color:#d9d9d9;stop-opacity:1;" offset="0.578125"/><stop style="stop-color:#dadada;stop-opacity:1;" offset="0.585938"/><stop style="stop-color:#dadada;stop-opacity:1;" offset="0.59375"/><stop style="stop-color:#dbdbdb;stop-opacity:1;" offset="0.601563"/><stop style="stop-color:#dcdcdc;stop-opacity:1;" offset="0.609375"/><stop style="stop-color:#dddddd;stop-opacity:1;" offset="0.617188"/><stop style="stop-color:#dddddd;stop-opacity:1;" offset="0.625"/><stop style="stop-color:#dedede;stop-opacity:1;" offset="0.632812"/><stop style="stop-color:#dfdfdf;stop-opacity:1;" offset="0.640625"/><stop style="stop-color:#dfdfdf;stop-opacity:1;" offset="0.648438"/><stop style="stop-color:#e0e0e0;stop-opacity:1;" offset="0.65625"/><stop style="stop-color:#e1e1e1;stop-opacity:1;" offset="0.664063"/><stop style="stop-color:#e1e1e1;stop-opacity:1;" offset="0.671875"/><stop style="stop-color:#e2e2e2;stop-opacity:1;" offset="0.679688"/><stop style="stop-color:#e3e3e3;stop-opacity:1;" offset="0.6875"/><stop style="stop-color:#e4e4e4;stop-opacity:1;" offset="0.695313"/><stop style="stop-color:#e4e4e4;stop-opacity:1;" offset="0.703125"/><stop style="stop-color:#e5e5e5;stop-opacity:1;" offset="0.710938"/><stop style="stop-color:#e6e6e6;stop-opacity:1;" offset="0.71875"/><stop style="stop-color:#e6e6e6;stop-opacity:1;" offset="0.726562"/><stop style="stop-color:#e7e7e7;stop-opacity:1;" offset="0.734375"/><stop style="stop-color:#e8e8e8;stop-opacity:1;" offset="0.742188"/><stop style="stop-color:#e8e8e8;stop-opacity:1;" offset="0.75"/><stop style="stop-color:#e9e9e9;stop-opacity:1;" offset="0.757812"/><stop style="stop-color:#eaeaea;stop-opacity:1;" offset="0.765625"/><stop style="stop-color:#eaeaea;stop-opacity:1;" offset="0.773438"/><stop style="stop-color:#ebebeb;stop-opacity:1;" offset="0.78125"/><stop style="stop-color:#ececec;stop-opacity:1;" offset="0.789062"/><stop style="stop-color:#ededed;stop-opacity:1;" offset="0.796875"/><stop style="stop-color:#ededed;stop-opacity:1;" offset="0.804688"/><stop style="stop-color:#eeeeee;stop-opacity:1;" offset="0.8125"/><stop style="stop-color:#efefef;stop-opacity:1;" offset="0.820313"/><stop style="stop-color:#efefef;stop-opacity:1;" offset="0.828125"/><stop style="stop-color:#f0f0f0;stop-opacity:1;" offset="0.835938"/><stop style="stop-color:#f1f1f1;stop-opacity:1;" offset="0.84375"/><stop style="stop-color:#f1f1f1;stop-opacity:1;" offset="0.851562"/><stop style="stop-color:#f2f2f2;stop-opacity:1;" offset="0.859375"/><stop style="stop-color:#f3f3f3;stop-opacity:1;" offset="0.867188"/><stop style="stop-color:#f4f4f4;stop-opacity:1;" offset="0.875"/><stop style="stop-color:#f4f4f4;stop-opacity:1;" offset="0.882812"/><stop style="stop-color:#f5f5f5;stop-opacity:1;" offset="0.890625"/><stop style="stop-color:#f6f6f6;stop-opacity:1;" offset="0.898438"/><stop style="stop-color:#f6f6f6;stop-opacity:1;" offset="0.90625"/><stop style="stop-color:#f7f7f7;stop-opacity:1;" offset="0.914062"/><stop style="stop-color:#f8f8f8;stop-opacity:1;" offset="0.921875"/><stop style="stop-color:#f8f8f8;stop-opacity:1;" offset="0.929688"/><stop style="stop-color:#f9f9f9;stop-opacity:1;" offset="0.9375"/><stop style="stop-color:#fafafa;stop-opacity:1;" offset="0.945312"/><stop style="stop-color:#fafafa;stop-opacity:1;" offset="0.953125"/><stop style="stop-color:#fbfbfb;stop-opacity:1;" offset="0.960938"/><stop style="stop-color:#fcfcfc;stop-opacity:1;" offset="0.96875"/><stop style="stop-color:#fdfdfd;stop-opacity:1;" offset="0.976562"/><stop style="stop-color:#fdfdfd;stop-opacity:1;" offset="0.984375"/><stop style="stop-color:#fefefe;stop-opacity:1;" offset="0.992188"/><stop style="stop-color:#ffffff;stop-opacity:1;" offset="1"/></linearGradient><clipPath id="abc71bcaa9"><path d="M 43.835938 24.582031 L 331.085938 24.582031 L 331.085938 350 L 43.835938 350 Z M 43.835938 24.582031 "/></clipPath></defs><g id="fec073ebac"><g clip-rule="nonzero" clip-path="url(#ba9d74af31)"><rect x="0" width="375" y="0" height="374.999991" style="fill:url(#df57c304e1);stroke:none;"/></g><g clip-rule="nonzero" clip-path="url(#abc71bcaa9)"><path style=" stroke:none;fill-rule:nonzero;fill:#000000;fill-opacity:1;" d="M 283.210938 24.679688 L 130.007812 24.679688 C 106.601562 24.679688 87.078125 41.554688 82.953125 63.765625 C 60.722656 67.890625 43.835938 87.398438 43.835938 110.789062 C 43.835938 126.046875 43.835938 293.277344 43.835938 302.144531 C 43.835938 328.519531 65.3125 349.980469 91.710938 349.980469 L 244.910156 349.980469 C 268.316406 349.980469 287.839844 333.105469 291.96875 310.894531 C 314.195312 306.769531 331.085938 287.261719 331.085938 263.871094 L 331.085938 72.519531 C 331.085938 46.140625 309.609375 24.679688 283.210938 24.679688 Z M 273.632812 302.144531 C 273.632812 317.96875 260.75 330.847656 244.910156 330.847656 L 91.710938 330.847656 C 75.871094 330.847656 62.984375 317.96875 62.984375 302.144531 L 62.984375 277.402344 L 120.433594 219.996094 L 190.265625 289.773438 C 194.003906 293.507812 200.066406 293.507812 203.804688 289.773438 C 207.542969 286.035156 207.542969 279.980469 203.804688 276.242188 L 172.273438 244.738281 L 216.183594 200.859375 L 273.632812 258.265625 Z M 273.632812 231.207031 L 222.953125 180.566406 C 219.214844 176.828125 213.152344 176.828125 209.414062 180.566406 L 158.734375 231.207031 L 127.203125 199.699219 C 123.464844 195.964844 117.402344 195.964844 113.664062 199.699219 L 62.984375 250.339844 L 62.984375 110.789062 C 62.984375 94.960938 75.871094 82.085938 91.710938 82.085938 L 244.910156 82.085938 C 260.75 82.085938 273.632812 94.960938 273.632812 110.789062 Z M 273.632812 231.207031 "/></g><path style=" stroke:none;fill-rule:nonzero;fill:#000000;fill-opacity:1;" d="M 187.460938 158.628906 C 187.460938 159.566406 187.414062 160.503906 187.320312 161.441406 C 187.230469 162.375 187.089844 163.304688 186.90625 164.226562 C 186.722656 165.148438 186.496094 166.058594 186.222656 166.960938 C 185.949219 167.859375 185.632812 168.742188 185.273438 169.609375 C 184.914062 170.480469 184.511719 171.328125 184.066406 172.15625 C 183.625 172.988281 183.140625 173.792969 182.617188 174.574219 C 182.09375 175.355469 181.535156 176.109375 180.9375 176.835938 C 180.34375 177.5625 179.710938 178.257812 179.046875 178.921875 C 178.378906 179.589844 177.683594 180.21875 176.957031 180.816406 C 176.230469 181.410156 175.476562 181.96875 174.691406 182.492188 C 173.910156 183.015625 173.105469 183.496094 172.273438 183.941406 C 171.445312 184.382812 170.597656 184.785156 169.726562 185.144531 C 168.859375 185.503906 167.972656 185.820312 167.074219 186.09375 C 166.171875 186.367188 165.261719 186.59375 164.339844 186.777344 C 163.414062 186.960938 162.484375 187.101562 161.550781 187.191406 C 160.613281 187.285156 159.675781 187.332031 158.734375 187.332031 C 157.792969 187.332031 156.855469 187.285156 155.917969 187.191406 C 154.984375 187.101562 154.054688 186.960938 153.128906 186.777344 C 152.207031 186.59375 151.296875 186.367188 150.394531 186.09375 C 149.496094 185.820312 148.609375 185.503906 147.742188 185.144531 C 146.871094 184.785156 146.023438 184.382812 145.195312 183.941406 C 144.363281 183.496094 143.558594 183.015625 142.777344 182.492188 C 141.992188 181.96875 141.238281 181.410156 140.511719 180.816406 C 139.785156 180.21875 139.089844 179.589844 138.421875 178.921875 C 137.757812 178.257812 137.125 177.5625 136.53125 176.835938 C 135.933594 176.109375 135.375 175.355469 134.851562 174.574219 C 134.328125 173.792969 133.84375 172.988281 133.402344 172.15625 C 132.957031 171.328125 132.554688 170.480469 132.195312 169.609375 C 131.835938 168.742188 131.519531 167.859375 131.246094 166.960938 C 130.972656 166.058594 130.746094 165.148438 130.5625 164.226562 C 130.378906 163.304688 130.238281 162.375 130.148438 161.441406 C 130.054688 160.503906 130.007812 159.566406 130.007812 158.628906 C 130.007812 157.6875 130.054688 156.75 130.148438 155.8125 C 130.238281 154.878906 130.378906 153.949219 130.5625 153.027344 C 130.746094 152.105469 130.972656 151.195312 131.246094 150.296875 C 131.519531 149.394531 131.835938 148.511719 132.195312 147.644531 C 132.554688 146.773438 132.957031 145.925781 133.402344 145.097656 C 133.84375 144.265625 134.328125 143.460938 134.851562 142.679688 C 135.375 141.898438 135.933594 141.144531 136.53125 140.417969 C 137.125 139.691406 137.757812 138.996094 138.421875 138.332031 C 139.089844 137.667969 139.785156 137.035156 140.511719 136.4375 C 141.238281 135.84375 141.992188 135.285156 142.777344 134.761719 C 143.558594 134.238281 144.363281 133.757812 145.195312 133.3125 C 146.023438 132.871094 146.871094 132.46875 147.742188 132.109375 C 148.609375 131.75 149.496094 131.433594 150.394531 131.160156 C 151.296875 130.886719 152.207031 130.660156 153.128906 130.476562 C 154.054688 130.292969 154.984375 130.15625 155.917969 130.0625 C 156.855469 129.96875 157.792969 129.925781 158.734375 129.925781 C 159.675781 129.925781 160.613281 129.96875 161.550781 130.0625 C 162.484375 130.15625 163.414062 130.292969 164.339844 130.476562 C 165.261719 130.660156 166.171875 130.886719 167.074219 131.160156 C 167.972656 131.433594 168.859375 131.75 169.726562 132.109375 C 170.597656 132.46875 171.445312 132.871094 172.273438 133.3125 C 173.105469 133.757812 173.910156 134.238281 174.691406 134.761719 C 175.476562 135.285156 176.230469 135.84375 176.957031 136.4375 C 177.683594 137.035156 178.378906 137.667969 179.046875 138.332031 C 179.710938 138.996094 180.34375 139.691406 180.9375 140.417969 C 181.535156 141.144531 182.09375 141.898438 182.617188 142.679688 C 183.140625 143.460938 183.625 144.265625 184.066406 145.097656 C 184.511719 145.925781 184.914062 146.773438 185.273438 147.644531 C 185.632812 148.511719 185.949219 149.394531 186.222656 150.296875 C 186.496094 151.195312 186.722656 152.105469 186.90625 153.027344 C 187.089844 153.949219 187.230469 154.878906 187.320312 155.8125 C 187.414062 156.75 187.460938 157.6875 187.460938 158.628906 Z M 187.460938 158.628906 "/></g></svg>