<svg viewBox="0 0 200 200" xmlns="http://www.w3.org/2000/svg">
  <!-- Rounded square background -->
  <rect x="20" y="20" width="160" height="160" rx="32" ry="32" fill="#000000"/>
  
  <!-- Main geometric composition - layered rectangles representing photos/frames -->
  <g fill="#ffffff">
    <!-- Back photo frame - rotated -->
    <rect x="40" y="60" width="110" height="80" rx="6" ry="6" opacity="0.15" transform="rotate(-5 95 100)"/>
    
    <!-- Middle photo frame - rotated opposite -->
    <rect x="45" y="65" width="110" height="80" rx="6" ry="6" opacity="0.35" transform="rotate(4 100 105)"/>
    
    <!-- Front photo frame - straight -->
    <rect x="50" y="70" width="110" height="80" rx="6" ry="6" opacity="1"/>
    
    <!-- Photo placeholder content in front frame -->
    <rect x="55" y="75" width="100" height="70" rx="3" ry="3" fill="#000000"/>
    
    <!-- Back mountain (gets cut off) -->
    <polyline points="55,145 80,120 105,145" fill="none" stroke="#ffffff" stroke-width="2" opacity="0.6"/>
    
    <!-- Front mountain (complete triangle) -->
    <polyline points="55,145 100,105 155,145" fill="none" stroke="#ffffff" stroke-width="2" opacity="0.9"/>
    
    <!-- Simple sun in visible spot -->
    <circle cx="120" cy="110" r="4" fill="#ffffff" opacity="0.8"/>
  </g>
  
  <!-- Corner accent - arrow/chevron -->
  <g fill="#ffffff" opacity="0.35">
    <polygon points="47,47 52,52 47,57 45,55 48,52 45,49"/>
  </g>
</svg>